<?xml version="1.0" encoding="UTF-8" standalone="no" ?>
<!DOCTYPE svg PUBLIC "-//W3C//DTD SVG 1.1//EN" "http://www.w3.org/Graphics/SVG/1.1/DTD/svg11.dtd">
<svg xmlns="http://www.w3.org/2000/svg" xmlns:xlink="http://www.w3.org/1999/xlink" version="1.1" width="100" height="100" viewBox="0 0 640 640" xml:space="preserve">
<desc>Created with Fabric.js 4.6.0</desc>
<defs>
</defs>
<g transform="matrix(1 0 0 1 310.07 297.69)" id="x_0IyTTRGRvK2Slxqhagx"  >
<path style="stroke: rgb(0,0,0); stroke-width: 4; stroke-dasharray: none; stroke-linecap: butt; stroke-dashoffset: 0; stroke-linejoin: miter; stroke-miterlimit: 4; fill: rgb(0,0,0); fill-rule: nonzero; opacity: 1;" vector-effect="non-scaling-stroke"  transform=" translate(-266.61, -253.01)" d="M 0.13981 252.27055 C -0.78599 243.3843 2.9172200000000004 235.48541999999998 10.323630000000001 228.57389999999998 L 246.77337 6.9115199999999675 C 252.32818 1.9747199999999676 259.73459 -3.2862601528904634e-14 266.2152 -3.2862601528904634e-14 C 272.69581999999997 -3.2862601528904634e-14 280.10222999999996 0.9873599999999672 286.58284 7.898879999999967 L 523.95838 228.57389999999995 C 530.4390000000001 235.48542999999995 533.2164 243.38430999999994 533.2164 252.27054999999996 C 533.2164 270.14176999999995 520.25518 283.96480999999994 503.59075 283.96480999999994 L 473.87252 283.96480999999994 L 473.87252 352.68507999999997 C 473.9651 353.57370999999995 473.9651 354.56107 473.9651 355.44969 L 473.9651 466.03404 C 473.9651 487.8547 457.39325 505.52845 436.93303000000003 505.52845 L 422.1202 505.52845 C 421.00923 505.52845 419.89827 505.42972000000003 418.78731 505.33098 C 417.3986 505.42971 416.0099 505.52845 414.6212 505.52845 L 406.11048999999997 505.52845 L 406.11048999999997 506.02213 L 295.32462 506.02213 L 295.32462 435.73813 C 295.32462 358.92793 233.0444 296.64771 156.2342 296.64771 L 136.36414 296.64771 C 125.37351 296.64771 116.49408 305.52714000000003 116.49408 316.51777000000004 C 116.49408 393.32797000000005 178.77429999999998 455.60819000000004 255.5845 455.60819000000004 L 255.5845 506.02213000000006 L 144.8843 506.02213000000006 L 144.8843 505.5284500000001 L 117.99435 505.5284500000001 C 116.69821999999999 505.5284500000001 115.40209999999999 505.5284500000001 114.10598 505.42971000000006 C 113.08759 505.5284500000001 112.06921 505.5284500000001 111.05083 505.5284500000001 L 96.238 505.5284500000001 C 75.77778 505.5284500000001 59.20593 487.8547000000001 59.20593 466.03404000000006 L 59.20593 450.13754000000006 C 58.92819 447.4716700000001 58.743030000000005 444.80579000000006 58.743030000000005 442.1399200000001 L 59.391090000000005 283.9648000000001 L 29.765440000000005 283.9648000000001 C 14.026810000000005 283.9648000000001 0.13979000000000497 270.04302000000007 0.13979000000000497 252.2705400000001 z M 434.41504 276.77764 C 434.41504 265.78701 425.53560999999996 256.90758 414.54497999999995 256.90758 L 394.67491999999993 256.90758 C 342.51600999999994 256.90758 297.0632499999999 285.65708 273.28126999999995 328.12933 C 294.82786999999996 351.53875 309.41993999999994 381.46803 313.82860999999997 414.62618999999995 C 381.88356999999996 405.62256999999994 434.41504 347.3163599999999 434.41504 276.77764999999994 z" stroke-linecap="round" />
</g>
</svg>